# AST/ASF file generated using VICON BodyLanguage
# -----------------------------------------------
:version 1.10
:name VICON
:units
  mass 1.0
  length 0.45
  angle deg
:documentation
   .ast/.asf automatically generated from VICON data using
   VICON BodyBuilder and BodyLanguage model FoxedUp or BRILLIANT.MOD
:root
   order TX TY TZ RX RY RZ
   axis XYZ
   position 0 0 0  
   orientation 0 0 0 
:bonedata
  begin
     id 1 
     name lhipjoint
     direction 0.541323 -0.757556 0.364798 
     length 2.47576 
     axis 0 0 0  XYZ
  end
  begin
     id 2 
     name lfemur
     direction 0.34202 -0.939693 0  
     length 7.46493  
     axis 0 0 20  XYZ
    dof rx ry rz
    limits (-160.0 20.0)
           (-70.0 70.0)
           (-60.0 70.0)
  end
  begin
     id 3 
     name ltibia
     direction 0.34202 -0.939693 0   
     length 7.73805   
     axis 0 0 20   XYZ
    dof rx
    limits (-10.0 170.0)
  end
  begin
     id 4 
     name lfoot
     direction 0.107174 -0.294458 0.949636   
     length 2.25864   
     axis -90 7.62852e-016 20   XYZ
    dof rx rz
    limits (-45.0 90.0)
           (-70.0 20.0)
  end
  begin
     id 5 
     name ltoes
     direction 1.53606e-011 -4.21934e-011 1   
     length 1.12451   
     axis -90 7.62852e-016 20   XYZ
    dof rx
    limits (-90.0 20.0)
  end
  begin
     id 6 
     name rhipjoint
     direction -0.524745 -0.766967 0.36933   
     length 2.44538  
     axis 0 0 0  XYZ 
  end
  begin
     id 7 
     name rfemur
     direction -0.34202 -0.939693 0   
     length 7.61604   
     axis 0 0 -20   XYZ
    dof rx ry rz
    limits (-160.0 20.0)
           (-70.0 70.0)
           (-70.0 60.0)
  end
  begin
     id 8 
     name rtibia
     direction -0.34202 -0.939693 0   
     length 7.61056   
     axis 0 0 -20   XYZ
    dof rx
    limits (-10.0 170.0)
 end
 begin
     id 9 
     name rfoot
     direction -0.12616 -0.346623 0.929482   
     length 2.46372  
     axis -90 -7.62852e-016 -20   XYZ
    dof rx rz
    limits (-45.0 90.0)
           (-20.0 70.0)
  end
  begin
     id 10 
     name rtoes
     direction -1.53531e-011 -4.22004e-011 1   
     length 1.21611   
     axis -90 -7.62852e-016 -20   XYZ
    dof rx
    limits (-90.0 20.0)
  end
  begin
     id 11 
     name lowerback
     direction -0.000778023 0.997293 -0.0735223   
     length 2.06139   
     axis 0 0 0   XYZ
    dof rx ry rz
    limits (-20.0 45.0)
           (-30.0 30.0)
           (-30.0 30.0)
  end
  begin
     id 12 
     name upperback
     direction 0.0222598 0.999722 -0.0078355   
     length 2.06383   
     axis 0 0 0   XYZ
    dof rx ry rz
    limits (-20.0 45.0)
           (-30.0 30.0)
           (-30.0 30.0)
  end
  begin
     id 13 
     name thorax
     direction 0.0219654 0.999405 0.0265994   
     length 2.07163   
     axis 0 0 0   XYZ
    dof rx ry rz
    limits (-20.0 45.0)
           (-30.0 30.0)
           (-30.0 30.0)
  end
  begin
     id 14 
     name lowerneck
     direction 0.0213282 0.988147 0.15202   
     length 1.75969   
     axis 0 0 0   XYZ
    dof rx ry rz
    limits (-20.0 45.0)
           (-30.0 30.0)
           (-30.0 30.0)
  end
  begin
     id 15 
     name upperneck
     direction -0.0546456 0.982624 -0.177379   
     length 1.79244   
     axis 0 0 0   XYZ
    dof rx ry rz
    limits (-20.0 45.0)
           (-30.0 30.0)
           (-30.0 30.0)
  end
  begin
     id 16
     name head
     direction -0.0199987 0.996855 -0.076686  
     length 1.80555  
     axis 0 0 0   XYZ
    dof rx ry rz
    limits (-20.0 45.0)
           (-30.0 30.0)
           (-30.0 30.0)
  end
  begin
     id 17 
     name lclavicle
     direction 0.929565 0.363219 -0.063096  
     length 3.55722  
     axis 0 0 0   XYZ
    dof ry rz
    limits (-20.0 10.0)
           (0.0 20.0)
  end
  begin
     id 18 
     name lhumerus
     direction 1 -4.48993e-011 -2.36203e-027   
     length 4.92785   
     axis 180 -30 -90   XYZ
    dof rx ry rz
    limits (-60.0 90.0)
           (-90.0 90.0)
           (-90.0 90.0)
  end
  begin
     id 19
     name lradius
     direction 1 -4.48947e-011 2.02997e-027   
     length 3.44052   
     axis 180 -30 -90   XYZ
    dof rx
    limits (-10.0 170.0)
  end
  begin
     id 20
     name lwrist
     direction 1 -4.48962e-011 1.45991e-027   
     length 1.72026   
     axis 1.49639e-024 90 90   XYZ
    dof ry
    limits (-180.0 0.0)
 end
  begin
     id 21 
     name lhand
     direction 1 -4.48984e-011 2.91906e-027   
     length 0.654326   
     axis -1.863e-015 90 90   XYZ
    dof rx rz
    limits (-90.0 90.0)
           (-45.0 45.0)
  end
  begin
     id 22 
     name lfingers
     direction 1 -4.48961e-011 5.83968e-027   
     length 0.527534   
     axis -3.72598e-015 90 90   XYZ
    dof rx
    limits (0.0 90.0)
  end
  begin
     id 23
     name lthumb
     direction 0.707107 -6.34963e-011 0.707107   
     length 0.757437   
     axis -90 45 -6.68868e-015   XYZ
    dof rx rz
    limits (-45.0 45.0)
           (-45.0 45.0)
  end
  begin
     id 24 
     name rclavicle
     direction -0.902944 0.422599 -0.0781198   
     length 3.54432  
     axis 0 0 0   XYZ 
    dof ry rz
    limits (-10.0 20.0)
           (-20.0 0.0)
  end
  begin
     id 25 
     name rhumerus
     direction -1 -4.48953e-011 -4.75835e-028  
     length 5.09181   
     axis 180 30 90   XYZ
    dof rx ry rz
    limits (-90.0 60.0)
           (-90.0 90.0)
           (-90.0 90.0)
  end
  begin
     id 26 
     name rradius
     direction -1 -4.48986e-011 -3.25889e-027   
     length 3.49865   
     axis 180 30 90   XYZ
    dof rx
    limits (-10.0 170.0)
  end
  begin
     id 27 
     name rwrist
     direction -1 -4.48963e-011 1.45989e-027   
     length 1.74933   
     axis 1.49639e-024 -90 -90   XYZ
    dof ry
    limits (-180.0 0.0)
  end
  begin
     id 28
     name rhand
     direction -1 -4.49003e-011 2.91844e-027   
     length 0.66641   
     axis -1.863e-015 -90 -90   XYZ
    dof rx rz
    limits (-90.0 90.0)
           (-45.0 45.0)
  end
  begin
     id 29
     name rfingers
     direction -1 -4.48973e-011 5.83886e-027   
     length 0.537277   
     axis -3.72598e-015 -90 -90   XYZ
    dof rx
    limits (0.0 90.0)
  end
  begin
     id 30
     name rthumb
     direction -0.707107 -6.34976e-011 0.707107   
     length 0.771425   
     axis -90 -45 6.68868e-015   XYZ
    dof rx rz
    limits (-45.0 45.0)
           (-45.0 45.0)
  end
:hierarchy
  begin
    root lhipjoint rhipjoint lowerback
    lhipjoint lfemur
    lfemur ltibia
    ltibia lfoot
    lfoot ltoes
    rhipjoint rfemur
    rfemur rtibia
    rtibia rfoot
    rfoot rtoes
    lowerback upperback
    upperback thorax
    thorax lowerneck lclavicle rclavicle
    lowerneck upperneck
    upperneck head
    lclavicle lhumerus
    lhumerus lradius
    lradius lwrist
    lwrist lhand lthumb
    lhand lfingers
    rclavicle rhumerus
    rhumerus rradius
    rradius rwrist
    rwrist rhand rthumb
    rhand rfingers
  end

#!OML:ASF H:\LiuWeirdWalks\Patient Classification 1\Patient 1\Session 1\male.ASF
:FULLY-SPECIFIED
:DEGREES
291
root 1.27168 17.3321 -27.6235 1.57962 9.7859 7.22107
lowerback 6.64417 -1.73698 -6.46928
upperback -4.12661 -2.94553 0.546147
thorax -7.7531 -1.0791 4.59414
lowerneck -11.1049 -4.15025 10.8932
upperneck 11.3766 -7.57311 1.46729
head 4.93433 -3.12471 -1.81974
rclavicle -2.28105e-014 -2.38542e-015
rhumerus -68.3525 -32.1603 -46.9807
rradius 22.8358
rwrist -1.12169
rhand -15.9406 -7.69285
rfingers 7.12502
rthumb 10.2575 -37.4227
lclavicle -2.28105e-014 -2.38542e-015
lhumerus -40.5337 -35.8874 94.8057
lradius 43.4159
lwrist 14.9781
lhand -10.606 0.729265
lfingers 7.12502
lthumb 15.4 30.1357
rfemur -54.796 -8.86745 3.70095
rtibia 39.4417
rfoot 15.0122 -15.7387
rtoes -5.91348
lfemur 22.5278 -2.61194 -29.1308
ltibia 0
lfoot -8.57399 9.90418
ltoes -17.4723
292
root 1.24248 17.2988 -27.5086 1.93337 9.91131 7.36599
lowerback 6.41331 -1.59564 -6.5088
upperback -4.27484 -2.76326 0.3381
thorax -7.81059 -0.98812 4.36682
lowerneck -11.3116 -4.24955 10.9014
upperneck 11.5135 -7.74196 1.45487
head 5.00296 -3.1978 -1.84433
rclavicle -1.83876e-015 7.95139e-016
rhumerus -68.3884 -32.2612 -47.3172
rradius 22.8556
rwrist -1.15329
rhand -15.8911 -7.62552
rfingers 7.12502
rthumb 10.3052 -37.353
lclavicle -1.83876e-015 7.95139e-016
lhumerus -41.1638 -36.1638 95.0684
lradius 43.0055
lwrist 14.7231
lhand -10.2294 0.702269
lfingers 7.12502
lthumb 15.7627 30.0804
rfemur -54.3143 -9.13117 4.05357
rtibia 40.1867
rfoot 15.9741 -16.1374
rtoes -5.46599
lfemur 22.5714 -2.70452 -29.0666
ltibia -6.36111e-014
lfoot -8.70121 9.81496
ltoes -17.816
293
root 1.21298 17.2633 -27.3907 2.27392 10.018 7.54318
lowerback 6.18927 -1.45339 -6.58695
upperback -4.41146 -2.58344 0.128184
thorax -7.85694 -0.897148 4.1601
lowerneck -11.5162 -4.33524 10.9044
upperneck 11.6289 -7.88685 1.41785
head 5.06454 -3.26233 -1.87398
rclavicle 4.12478e-014 7.15625e-015
rhumerus -68.3614 -32.3439 -47.6712
rradius 22.8412
rwrist -1.09437
rhand -15.819 -7.55456
rfingers 7.12502
rthumb 10.3747 -37.2786
lclavicle 4.12478e-014 7.15625e-015
lhumerus -41.7376 -36.2932 95.2614
lradius 42.5598
lwrist 14.383
lhand -10.0429 0.514711
lfingers 7.12502
lthumb 15.9423 29.8786
rfemur -53.8419 -9.39112 4.36232
rtibia 41.0775
rfoot 16.9074 -16.4742
rtoes -5.00377
lfemur 22.6514 -2.77676 -29.0402
ltibia 1.59028e-014
lfoot -8.82625 9.74147
ltoes -18.1439
294
root 1.18297 17.2259 -27.2702 2.6043 10.0992 7.71709
lowerback 5.89556 -1.58253 -6.97509
upperback -4.53209 -2.76476 0.278123
thorax -7.77458 -0.960612 4.54846
lowerneck -11.5678 -4.04108 10.6895
upperneck 11.7001 -7.42148 1.0745
head 5.10766 -3.0658 -1.92098
rclavicle -2.00276e-014 -3.18055e-015
rhumerus -67.3714 -31.6598 -48.4866
rradius 22.6936
rwrist -0.951715
rhand -15.721 -7.44794
rfingers 7.12502
rthumb 10.4693 -37.1672
lclavicle -2.00276e-014 -3.18055e-015
lhumerus -42.1179 -35.0561 95.2788
lradius 42.0173
lwrist 13.6713
lhand -10.0864 0.144064
lfingers 7.12502
lthumb 15.9005 29.5113
rfemur -53.3806 -9.62476 4.66039
rtibia 42.093
rfoot 17.7982 -16.7015
rtoes -4.57319
lfemur 22.7573 -2.8234 -29.0128
ltibia -1.04958e-013
lfoot -8.92733 9.6968
ltoes -18.4799
295
root 1.15265 17.1873 -27.1469 2.91762 10.1699 7.88075
lowerback 5.61411 -1.64367 -7.27924
upperback -4.6442 -2.85134 0.350133
thorax -7.707 -0.984262 4.79548
lowerneck -11.6338 -3.82891 10.5254
upperneck 11.7254 -7.08105 0.793597
head 5.13486 -2.9258 -1.96328
rclavicle -2.78299e-014 -7.95139e-015
rhumerus -66.5843 -31.1445 -49.1702
rradius 22.5405
rwrist -0.748561
rhand -15.6071 -7.34394
rfingers 7.12502
rthumb 10.5792 -37.0577
lclavicle -2.78299e-014 -7.95139e-015
lhumerus -42.4907 -33.9838 95.2455
lradius 41.4576
lwrist 12.8427
lhand -10.2534 -0.24894
lfingers 7.12502
lthumb 15.7396 29.131
rfemur -52.9102 -9.854 4.95897
rtibia 43.2166
rfoot 18.6057 -16.798
rtoes -4.18925
lfemur 22.8961 -2.85834 -28.9777
ltibia -4.13472e-014
lfoot -8.99638 9.68164
ltoes -18.8116
296
root 1.12151 17.1478 -27.0208 3.21146 10.2267 8.00457
lowerback 5.34891 -1.6805 -7.52559
upperback -4.75818 -2.90103 0.408855
thorax -7.65802 -0.992479 4.99231
lowerneck -11.7162 -3.64592 10.3548
upperneck 11.764 -6.78485 0.54232
head 5.16888 -2.80484 -1.99872
rclavicle 4.12478e-014 2.3059e-014
rhumerus -65.85 -30.6564 -49.8262
rradius 22.3822
rwrist -0.586336
rhand -15.5346 -7.29132
rfingers 7.12502
rthumb 10.6491 -37.0015
lclavicle 4.12478e-014 2.3059e-014
lhumerus -42.852 -32.868 95.1419
lradius 40.8887
lwrist 11.9583
lhand -10.4195 -0.549989
lfingers 7.12502
lthumb 15.5796 28.8425
rfemur -52.4227 -10.0526 5.28367
rtibia 44.4283
rfoot 19.2748 -16.8177
rtoes -3.77112
lfemur 23.0587 -2.87808 -28.9
ltibia -5.725e-014
lfoot -9.02188 9.70021
ltoes -19.1728
297
root 1.08951 17.1083 -26.892 3.484 10.2915 8.08757
lowerback 5.14624 -1.45183 -7.44832
upperback -4.8723 -2.5932 0.138882
thorax -7.72109 -0.848174 4.62322
lowerneck -11.9285 -3.82037 10.3327
upperneck 11.8354 -7.0544 0.60896
head 5.21699 -2.92684 -1.99971
rclavicle -1.69961e-014 -1.19271e-014
rhumerus -65.9327 -30.9064 -50.0857
rradius 22.3151
rwrist -0.474741
rhand -15.4926 -7.33292
rfingers 7.12502
rthumb 10.6896 -37.041
lclavicle -1.69961e-014 -1.19271e-014
lhumerus -43.31 -32.786 95.0498
lradius 40.3664
lwrist 11.3108
lhand -10.4554 -0.603995
lfingers 7.12502
lthumb 15.545 28.7912
rfemur -51.8911 -10.2335 5.62873
rtibia 45.6958
rfoot 19.294 -16.6075
rtoes -4.46989
lfemur 23.2482 -2.90383 -28.7766
ltibia -2.22639e-014
lfoot -8.99124 9.73624
ltoes -19.6029
298
root 1.05699 17.0681 -26.7601 3.74458 10.3682 8.17433
lowerback 5.03301 -0.883413 -7.03175
upperback -4.98402 -1.83827 -0.566388
thorax -7.90598 -0.513582 3.55725
lowerneck -12.3341 -4.45876 10.542
upperneck 11.9463 -8.06435 1.03696
head 5.2846 -3.36711 -1.98057
rclavicle -1.20762e-014 -1.90833e-014
rhumerus -67.0704 -32.1469 -49.7661
rradius 22.342
rwrist -0.322372
rhand -15.4519 -7.42748
rfingers 7.12502
rthumb 10.7288 -37.1335
lclavicle -1.20762e-014 -1.90833e-014
lhumerus -43.8815 -34.0615 94.986
lradius 39.9067
lwrist 10.9821
lhand -10.3565 -0.429996
lfingers 7.12502
lthumb 15.6404 28.9578
rfemur -51.2955 -10.4324 5.96264
rtibia 46.9725
rfoot 18.255 -16.0768
rtoes -7.12043
lfemur 23.4593 -2.94072 -28.6557
ltibia -5.725e-014
lfoot -8.89796 9.78388
ltoes -20.0916
299
root 1.02382 17.0267 -26.6244 3.97083 10.472 8.24771
lowerback 5.05203 -0.06481 -6.38926
upperback -5.09548 -0.762763 -1.59461
thorax -8.17276 -0.0467395 1.98612
lowerneck -12.8933 -5.44969 10.9392
upperneck 12.1043 -9.65114 1.76126
head 5.37899 -4.04831 -1.94544
rclavicle -2.24875e-014 3.57812e-015
rhumerus -69.0078 -34.0801 -49.0204
rradius 22.4563
rwrist -0.197722
rhand -15.4227 -7.61867
rfingers 7.12502
rthumb 10.757 -37.3232
lclavicle -2.24875e-014 3.57812e-015
lhumerus -44.5334 -36.3275 94.9161
lradius 39.5129
lwrist 10.9646
lhand -10.0661 0.0474584
lfingers 7.12502
lthumb 15.92 29.4131
rfemur -50.5883 -10.6139 6.26914
rtibia 48.1809
rfoot 16.714 -14.886
rtoes -11.4281
lfemur 23.7227 -3.00188 -28.5145
ltibia 1.90833e-014
lfoot -8.76108 9.81032
ltoes -20.6414
300
root 0.990072 16.9846 -26.4853 4.16953 10.5907 8.30625
lowerback 5.18574 0.807438 -5.74883
upperback -5.21627 0.369934 -2.69637
thorax -8.4583 0.440421 0.321384
lowerneck -13.5469 -6.54016 11.4483
upperneck 12.3227 -11.428 2.53504
head 5.50542 -4.80038 -1.93394
rclavicle 2.91561e-014 7.77745e-015
rhumerus -71.1694 -36.1551 -48.1066
rradius 22.5769
rwrist -0.0813677
rhand -15.3801 -7.85311
rfingers 7.12502
rthumb 10.7981 -37.5555
lclavicle 2.91561e-014 7.77745e-015
lhumerus -45.1748 -38.7462 94.7582
lradius 39.1337
lwrist 11.1388
lhand -9.8555 0.4902
lfingers 7.12502
lthumb 16.1228 29.8396
rfemur -49.7595 -10.745 6.53989
rtibia 49.229
rfoot 14.7742 -13.0987
rtoes -16.1364
lfemur 24.0262 -3.0763 -28.3506
ltibia 3.18055e-015
lfoot -8.56948 9.80309
ltoes -21.2784
301
root 0.955897 16.944 -26.3424 4.32521 10.7198 8.33373
lowerback 5.35951 1.63889 -5.22543
upperback -5.30685 1.44255 -3.73225
thorax -8.6713 0.900908 -1.21479
lowerneck -14.2232 -7.60817 12.0427
upperneck 12.5093 -13.1953 3.23954
head 5.62308 -5.54282 -1.95966
rclavicle 4.67144e-015 7.55382e-015
rhumerus -73.2178 -38.1582 -47.1701
rradius 22.6538
rwrist 0.0988101
rhand -15.3225 -8.08434
rfingers 7.12502
rthumb 10.8537 -37.7839
lclavicle 4.67144e-015 7.55382e-015
lhumerus -45.6581 -40.9188 94.422
lradius 38.7309
lwrist 11.4011
lhand -9.76275 0.869949
lfingers 7.12502
lthumb 16.2121 30.2121
rfemur -48.7884 -10.7754 6.76686
rtibia 50.0273
rfoot 12.4466 -11.1946
rtoes -19.9045
lfemur 22.1683 -3.08838 -28.0363
ltibia 4.33865
lfoot -10.4286 10.3082
ltoes -21.8889
